<svg width="475" height="117" viewBox="0 0 475 117" fill="none" xmlns="http://www.w3.org/2000/svg">
<g clip-path="url(#clip0)">
<path d="M28.9822 49.6439C24.816 49.6439 21.3744 53.0643 21.3744 57.2048V86.998C21.3744 88.2582 22.3707 89.2483 23.6386 89.2483C24.9066 89.2483 25.9029 88.2582 25.9029 86.998V57.2048C25.9029 55.4946 27.2614 54.1444 28.9822 54.1444C30.7031 54.1444 32.0616 55.4946 32.0616 57.2048V97.8892C32.0616 99.1494 33.0579 100.139 34.3258 100.139C35.5938 100.139 36.5901 99.1494 36.5901 97.8892V57.2048C36.5901 53.0643 33.1484 49.6439 28.9822 49.6439Z" fill="#E3B576"/>
<path d="M97 33.0821C97 27.3215 95.1886 22.731 91.6564 19.4906C85.1354 13.46 75.2633 14 74.9916 14H48.4547H22.1895C21.7367 14 11.8646 13.46 5.3436 19.4906C1.81139 22.821 0 27.4115 0 33.0821C0 38.4827 1.72082 43.0732 4.98133 46.3136C7.33613 48.6538 10.4155 50.094 13.7666 50.544V80.3373C13.7666 81.5974 14.7628 82.5875 16.0308 82.5875C17.2988 82.5875 18.2951 81.5974 18.2951 80.3373V50.544C23.8198 49.7339 28.9823 46.0435 30.3408 39.6528H48.4547H66.5686C67.9272 46.0435 73.0896 49.7339 78.6144 50.544V80.3373C78.6144 81.5974 79.6106 82.5875 80.8786 82.5875C82.1466 82.5875 83.1429 81.5974 83.1429 80.3373V50.544C86.4939 50.094 89.5733 48.6538 91.9281 46.3136C95.2792 43.1632 97 38.5727 97 33.0821ZM48.4547 29.6617H67.9272C67.0215 31.1019 66.4781 32.9921 66.2969 35.1523H48.4547H30.6125C30.4314 32.9921 29.888 31.1019 28.9823 29.6617H48.4547ZM81.0598 46.2235C76.169 46.2235 70.8254 43.0732 70.8254 36.1424C70.8254 29.3017 76.6218 28.2216 79.2484 31.2819C80.4258 32.7221 81.0598 34.7923 81.0598 37.4026C81.0598 38.6627 82.056 39.6528 83.324 39.6528C84.592 39.6528 85.5882 38.6627 85.5882 37.4026C85.5882 33.7122 84.592 30.5618 82.69 28.3116C81.0598 26.4214 78.8861 25.3413 76.5313 25.1612C76.4407 25.1612 76.3501 25.0712 76.2596 25.0712H76.0784C75.9879 25.0712 75.8973 25.0712 75.8067 25.0712C75.7162 25.0712 75.6256 25.0712 75.535 25.0712H48.4547H21.465C21.3744 25.0712 21.2838 25.0712 21.1933 25.0712C21.1027 25.0712 21.0121 25.0712 20.9216 25.0712H20.7404C20.6499 25.0712 20.5593 25.0712 20.4687 25.1612C18.1139 25.3413 15.9402 26.4214 14.31 28.3116C12.408 30.5618 11.4118 33.7122 11.4118 37.4026C11.4118 38.6627 12.408 39.6528 13.676 39.6528C14.944 39.6528 15.9402 38.6627 15.9402 37.4026C15.9402 34.7923 16.5742 32.6321 17.7516 31.2819C20.3782 28.2216 26.1746 29.2117 26.1746 36.1424C26.1746 43.0732 20.9216 46.2235 15.9402 46.2235C12.9514 46.2235 10.2344 45.1434 8.15126 43.1632C5.79645 40.823 4.52848 37.4026 4.52848 33.1721C4.52848 28.7616 5.88702 25.2512 8.42297 22.821C13.4949 18.0505 21.7367 18.5905 22.0084 18.5005H48.4547H75.0822C75.1727 18.5005 83.5051 18.0505 88.4865 22.731C91.113 25.1612 92.381 28.6716 92.381 33.0821C92.381 37.3126 91.113 40.7329 88.7582 43.0732C86.7656 45.0534 83.958 46.2235 81.0598 46.2235Z" fill="#E3B576"/>
<path d="M68.0178 49.6439C63.8516 49.6439 60.4099 53.0643 60.4099 57.2048V97.8892C60.4099 99.1494 61.4062 100.139 62.6742 100.139C63.9421 100.139 64.9384 99.1494 64.9384 97.8892V57.2048C64.9384 55.4946 66.2969 54.1444 68.0178 54.1444C69.7386 54.1444 71.0971 55.4946 71.0971 57.2048V86.998C71.0971 88.2582 72.0934 89.2483 73.3614 89.2483C74.6293 89.2483 75.6256 88.2582 75.6256 86.998V57.2048C75.535 53.0643 72.184 49.6439 68.0178 49.6439Z" fill="#E3B576"/>
<path d="M48.4547 43.7033C43.1111 43.7033 38.6732 48.0238 38.6732 53.3343V102.66C38.6732 103.92 39.6695 104.91 40.9375 104.91C42.2054 104.91 43.2017 103.92 43.2017 102.66V53.3343C43.2017 50.454 45.5565 48.2038 48.3642 48.2038C51.2624 48.2038 53.5266 50.544 53.5266 53.3343V102.66C53.5266 103.92 54.5229 104.91 55.7909 104.91C57.0588 104.91 58.0551 103.92 58.0551 102.66V53.3343C58.2362 48.0238 53.8889 43.7033 48.4547 43.7033Z" fill="#E3B576"/>
</g>
<path d="M161.2 28.4C168.6 28.4 174.567 29.4333 179.1 31.5C179.633 31.7667 179.967 32.0333 180.1 32.3C180.233 32.5 180.367 33 180.5 33.8L181.7 47C181.7 47.2 181.533 47.3333 181.2 47.4C180.867 47.4667 180.633 47.3667 180.5 47.1C178.767 41.6333 176.167 37.4667 172.7 34.6C169.3 31.7333 165.067 30.3 160 30.3C155.133 30.3 150.767 31.5333 146.9 34C143.1 36.4 140.133 39.9 138 44.5C135.867 49.0333 134.8 54.3333 134.8 60.4C134.8 66.4 135.933 71.7667 138.2 76.5C140.467 81.1667 143.567 84.8 147.5 87.4C151.433 90 155.867 91.3 160.8 91.3C165.667 91.3 169.7 90.0333 172.9 87.5C176.167 84.9 179.033 80.8 181.5 75.2C181.567 75 181.767 74.9333 182.1 75C182.433 75.0667 182.6 75.1667 182.6 75.3L181.3 87.3C181.233 88.1 181.1 88.6 180.9 88.8C180.767 89 180.433 89.2333 179.9 89.5C173.9 91.9667 167.533 93.2 160.8 93.2C153.667 93.2 147.3 91.8667 141.7 89.2C136.1 86.4667 131.733 82.6667 128.6 77.8C125.467 72.8667 123.9 67.2333 123.9 60.9C123.9 54.6333 125.533 49.0333 128.8 44.1C132.067 39.1667 136.533 35.3333 142.2 32.6C147.867 29.8 154.2 28.4 161.2 28.4ZM258.362 90.8C258.695 90.8 258.862 91 258.862 91.4C258.862 91.8 258.695 92 258.362 92C257.095 92 255.062 91.9333 252.262 91.8C249.462 91.6667 247.428 91.6 246.162 91.6C244.495 91.6 242.528 91.6667 240.262 91.8C237.995 91.9333 236.228 92 234.962 92C234.695 92 234.562 91.8 234.562 91.4C234.562 91 234.695 90.8 234.962 90.8C236.895 90.8 238.295 90.6 239.162 90.2C240.095 89.7333 240.562 89 240.562 88C240.562 87 239.995 85.3 238.862 82.9L231.262 67.5H207.062L202.262 78.3C201.395 80.3 200.962 82.1 200.962 83.7C200.962 86.0333 201.795 87.8 203.462 89C205.128 90.2 207.462 90.8 210.462 90.8C210.795 90.8 210.962 91 210.962 91.4C210.962 91.8 210.795 92 210.462 92C209.262 92 207.528 91.9333 205.262 91.8C202.728 91.6667 200.528 91.6 198.662 91.6C196.862 91.6 194.762 91.6667 192.362 91.8C190.228 91.9333 188.462 92 187.062 92C186.728 92 186.562 91.8 186.562 91.4C186.562 91 186.728 90.8 187.062 90.8C188.928 90.8 190.495 90.4333 191.762 89.7C193.028 88.9667 194.262 87.6667 195.462 85.8C196.662 83.8667 198.095 81.0333 199.762 77.3L221.262 28.9C221.395 28.7 221.695 28.6 222.162 28.6C222.628 28.6 222.895 28.7 222.962 28.9L247.462 78.3C249.795 83.1 251.728 86.4 253.262 88.2C254.862 89.9333 256.562 90.8 258.362 90.8ZM208.162 65H230.062L218.562 41.7L208.162 65ZM330.055 29.5C330.189 29.5 330.255 29.7 330.255 30.1C330.255 30.5 330.189 30.7 330.055 30.7C327.389 30.7 325.322 31.6667 323.855 33.6C322.389 35.4667 321.655 38.1667 321.655 41.7V93.4C321.655 93.6 321.489 93.7333 321.155 93.8C320.822 93.8667 320.589 93.8333 320.455 93.7L273.555 39.2V79.9C273.555 83.4333 274.255 86.1333 275.655 88C277.055 89.8667 279.089 90.8 281.755 90.8C281.889 90.8 281.955 91 281.955 91.4C281.955 91.8 281.889 92 281.755 92C279.955 92 278.589 91.9667 277.655 91.9L272.355 91.8L266.455 91.9C265.389 91.9667 263.855 92 261.855 92C261.655 92 261.555 91.8 261.555 91.4C261.555 91 261.655 90.8 261.855 90.8C264.722 90.8 266.922 89.8667 268.455 88C270.055 86.1333 270.855 83.4333 270.855 79.9V36.1C268.989 34.1 267.289 32.7 265.755 31.9C264.289 31.1 262.755 30.7 261.155 30.7C261.022 30.7 260.955 30.5 260.955 30.1C260.955 29.7 261.022 29.5 261.155 29.5L265.155 29.6C266.022 29.6667 267.255 29.7 268.855 29.7L275.255 29.6C276.055 29.5333 277.022 29.5 278.155 29.5C278.689 29.5 279.089 29.6333 279.355 29.9C279.622 30.1667 280.022 30.7 280.555 31.5L282.955 34.7L318.955 77.1V41.7C318.955 38.1667 318.255 35.4667 316.855 33.6C315.455 31.6667 313.455 30.7 310.855 30.7C310.722 30.7 310.655 30.5 310.655 30.1C310.655 29.7 310.722 29.5 310.855 29.5L314.955 29.6C317.089 29.7333 318.855 29.8 320.255 29.8C321.589 29.8 323.389 29.7333 325.655 29.6L330.055 29.5ZM388.698 41.7C388.698 38.2333 387.898 35.5333 386.298 33.6C384.764 31.6667 382.531 30.7 379.598 30.7C379.464 30.7 379.398 30.5 379.398 30.1C379.398 29.7 379.464 29.5 379.598 29.5L384.198 29.6C386.731 29.7333 388.731 29.8 390.198 29.8C391.398 29.8 393.198 29.7333 395.598 29.6L399.998 29.5C400.131 29.5 400.198 29.7 400.198 30.1C400.198 30.5 400.131 30.7 399.998 30.7C397.398 30.7 395.364 31.6667 393.898 33.6C392.498 35.5333 391.798 38.2333 391.798 41.7V69.7C391.798 74.5 390.764 78.7 388.698 82.3C386.698 85.8333 383.831 88.5667 380.098 90.5C376.431 92.4333 372.164 93.4 367.298 93.4C362.431 93.4 358.098 92.4667 354.298 90.6C350.498 88.6667 347.531 85.9333 345.398 82.4C343.331 78.8 342.298 74.6 342.298 69.8V37.6C342.298 35.6 342.098 34.1333 341.698 33.2C341.298 32.2667 340.564 31.6333 339.498 31.3C338.498 30.9 336.898 30.7 334.698 30.7C334.498 30.7 334.398 30.5 334.398 30.1C334.398 29.7 334.498 29.5 334.698 29.5L339.898 29.6C342.831 29.7333 345.198 29.8 346.998 29.8C348.998 29.8 351.464 29.7333 354.398 29.6L359.398 29.5C359.598 29.5 359.698 29.7 359.698 30.1C359.698 30.5 359.598 30.7 359.398 30.7C357.198 30.7 355.564 30.9 354.498 31.3C353.431 31.7 352.698 32.4 352.298 33.4C351.964 34.3333 351.798 35.8 351.798 37.8V66.3C351.798 74.2333 353.431 80.1667 356.698 84.1C360.031 87.9667 364.664 89.9 370.598 89.9C376.264 89.9 380.698 88.1667 383.898 84.7C387.098 81.1667 388.698 76.2 388.698 69.8V41.7ZM473.415 29.5C473.548 29.5 473.615 29.7 473.615 30.1C473.615 30.5 473.548 30.7 473.415 30.7C470.748 30.7 468.682 31.6667 467.215 33.6C465.748 35.4667 465.015 38.1667 465.015 41.7V93.4C465.015 93.6 464.848 93.7333 464.515 93.8C464.182 93.8667 463.948 93.8333 463.815 93.7L416.915 39.2V79.9C416.915 83.4333 417.615 86.1333 419.015 88C420.415 89.8667 422.448 90.8 425.115 90.8C425.248 90.8 425.315 91 425.315 91.4C425.315 91.8 425.248 92 425.115 92C423.315 92 421.948 91.9667 421.015 91.9L415.715 91.8L409.815 91.9C408.748 91.9667 407.215 92 405.215 92C405.015 92 404.915 91.8 404.915 91.4C404.915 91 405.015 90.8 405.215 90.8C408.082 90.8 410.282 89.8667 411.815 88C413.415 86.1333 414.215 83.4333 414.215 79.9V36.1C412.348 34.1 410.648 32.7 409.115 31.9C407.648 31.1 406.115 30.7 404.515 30.7C404.382 30.7 404.315 30.5 404.315 30.1C404.315 29.7 404.382 29.5 404.515 29.5L408.515 29.6C409.382 29.6667 410.615 29.7 412.215 29.7L418.615 29.6C419.415 29.5333 420.382 29.5 421.515 29.5C422.048 29.5 422.448 29.6333 422.715 29.9C422.982 30.1667 423.382 30.7 423.915 31.5L426.315 34.7L462.315 77.1V41.7C462.315 38.1667 461.615 35.4667 460.215 33.6C458.815 31.6667 456.815 30.7 454.215 30.7C454.082 30.7 454.015 30.5 454.015 30.1C454.015 29.7 454.082 29.5 454.215 29.5L458.315 29.6C460.448 29.7333 462.215 29.8 463.615 29.8C464.948 29.8 466.748 29.7333 469.015 29.6L473.415 29.5Z" fill="#fff"/>
<defs>
<clipPath id="clip0">
<rect width="97" height="91" fill="white" transform="translate(0 14)"/>
</clipPath>
</defs>
</svg>
